<mxfile host="app.diagrams.net" agent="Mozilla/5.0 (Windows NT 10.0; Win64; x64; rv:144.0) Gecko/20100101 Firefox/144.0" version="28.2.7">
  <diagram name="Page-1" id="URd2bjA2nZOg5CZcUx-p">
    <mxGraphModel dx="2532" dy="1400" grid="1" gridSize="10" guides="1" tooltips="1" connect="1" arrows="1" fold="1" page="1" pageScale="1" pageWidth="827" pageHeight="1169" math="0" shadow="0">
      <root>
        <mxCell id="0" />
        <mxCell id="1" parent="0" />
        <mxCell id="vJJlu5tf9LUZKPHLV9eS-1" value="" style="rounded=0;whiteSpace=wrap;html=1;" vertex="1" parent="1">
          <mxGeometry x="71" y="210" width="686" height="620" as="geometry" />
        </mxCell>
        <mxCell id="vJJlu5tf9LUZKPHLV9eS-3" value="Adquisición y almacenamiento de materia prima" style="rounded=0;whiteSpace=wrap;html=1;spacing=50;spacingTop=0;fontSize=16;" vertex="1" parent="1">
          <mxGeometry x="304" y="210" width="220" height="180" as="geometry" />
        </mxCell>
        <mxCell id="vJJlu5tf9LUZKPHLV9eS-21" value="Moldeo por inyección" style="rounded=0;whiteSpace=wrap;html=1;spacing=50;spacingTop=0;fontSize=16;" vertex="1" parent="1">
          <mxGeometry x="570" y="210" width="187" height="310" as="geometry" />
        </mxCell>
        <mxCell id="vJJlu5tf9LUZKPHLV9eS-22" value="Mecanizado metálico" style="rounded=0;whiteSpace=wrap;html=1;spacing=50;spacingTop=0;fontSize=16;" vertex="1" parent="1">
          <mxGeometry x="71" y="210" width="189" height="320" as="geometry" />
        </mxCell>
        <mxCell id="vJJlu5tf9LUZKPHLV9eS-23" value="&lt;div&gt;Ensamblaje&lt;/div&gt;&lt;div&gt;y&lt;/div&gt;&lt;div&gt;control de calidad&lt;/div&gt;" style="rounded=0;whiteSpace=wrap;html=1;spacing=50;spacingTop=0;fontSize=16;" vertex="1" parent="1">
          <mxGeometry x="303" y="430" width="220" height="180" as="geometry" />
        </mxCell>
        <mxCell id="vJJlu5tf9LUZKPHLV9eS-25" value="&lt;font style=&quot;font-size: 20px;&quot;&gt;Almacenamiento y distribución del producto final&lt;/font&gt;" style="text;html=1;whiteSpace=wrap;strokeColor=none;fillColor=none;align=center;verticalAlign=middle;rounded=0;" vertex="1" parent="1">
          <mxGeometry x="293" y="690" width="240" height="80" as="geometry" />
        </mxCell>
        <mxCell id="vJJlu5tf9LUZKPHLV9eS-26" value="" style="rounded=0;whiteSpace=wrap;html=1;strokeColor=light-dark(#000000,#000000);" vertex="1" parent="1">
          <mxGeometry x="130.5" y="490" width="70" height="80" as="geometry" />
        </mxCell>
        <mxCell id="vJJlu5tf9LUZKPHLV9eS-27" value="" style="rounded=0;whiteSpace=wrap;html=1;strokeColor=light-dark(#000000,#000000);" vertex="1" parent="1">
          <mxGeometry x="280" y="475" width="50" height="90" as="geometry" />
        </mxCell>
        <mxCell id="vJJlu5tf9LUZKPHLV9eS-29" value="" style="rounded=0;whiteSpace=wrap;html=1;strokeColor=light-dark(#000000,#000000);" vertex="1" parent="1">
          <mxGeometry x="500" y="475" width="50" height="90" as="geometry" />
        </mxCell>
        <mxCell id="vJJlu5tf9LUZKPHLV9eS-30" value="" style="rounded=0;whiteSpace=wrap;html=1;strokeColor=light-dark(#000000,#000000);" vertex="1" parent="1">
          <mxGeometry x="377.5" y="600" width="71" height="20" as="geometry" />
        </mxCell>
        <mxCell id="vJJlu5tf9LUZKPHLV9eS-31" value="" style="rounded=0;whiteSpace=wrap;html=1;strokeColor=light-dark(#000000,#000000);" vertex="1" parent="1">
          <mxGeometry x="378.5" y="380" width="71" height="20" as="geometry" />
        </mxCell>
        <mxCell id="vJJlu5tf9LUZKPHLV9eS-32" value="" style="rounded=0;whiteSpace=wrap;html=1;strokeColor=light-dark(#000000,#000000);" vertex="1" parent="1">
          <mxGeometry x="378.5" y="420" width="71" height="20" as="geometry" />
        </mxCell>
        <mxCell id="vJJlu5tf9LUZKPHLV9eS-33" value="" style="rounded=0;whiteSpace=wrap;html=1;strokeColor=light-dark(#000000,#000000);" vertex="1" parent="1">
          <mxGeometry x="290" y="255" width="30" height="90" as="geometry" />
        </mxCell>
        <mxCell id="vJJlu5tf9LUZKPHLV9eS-35" value="" style="rounded=0;whiteSpace=wrap;html=1;strokeColor=light-dark(#000000,#000000);" vertex="1" parent="1">
          <mxGeometry x="250" y="255" width="30" height="90" as="geometry" />
        </mxCell>
        <mxCell id="vJJlu5tf9LUZKPHLV9eS-37" value="" style="rounded=0;whiteSpace=wrap;html=1;strokeColor=light-dark(#000000,#000000);" vertex="1" parent="1">
          <mxGeometry x="503" y="255" width="30" height="90" as="geometry" />
        </mxCell>
        <mxCell id="vJJlu5tf9LUZKPHLV9eS-38" value="" style="rounded=0;whiteSpace=wrap;html=1;strokeColor=light-dark(#000000,#000000);" vertex="1" parent="1">
          <mxGeometry x="560" y="260" width="30" height="90" as="geometry" />
        </mxCell>
        <mxCell id="vJJlu5tf9LUZKPHLV9eS-39" value="" style="rounded=0;whiteSpace=wrap;html=1;strokeColor=light-dark(#000000,#000000);" vertex="1" parent="1">
          <mxGeometry x="628.5" y="485" width="70" height="80" as="geometry" />
        </mxCell>
        <mxCell id="vJJlu5tf9LUZKPHLV9eS-41" value="" style="rounded=0;whiteSpace=wrap;html=1;strokeColor=light-dark(#000000,#000000);" vertex="1" parent="1">
          <mxGeometry x="460" y="820" width="213.5" height="20" as="geometry" />
        </mxCell>
        <mxCell id="vJJlu5tf9LUZKPHLV9eS-42" value="" style="rounded=0;whiteSpace=wrap;html=1;strokeColor=light-dark(#000000,#000000);" vertex="1" parent="1">
          <mxGeometry x="140" y="820" width="213.5" height="20" as="geometry" />
        </mxCell>
        <mxCell id="vJJlu5tf9LUZKPHLV9eS-43" value="" style="rounded=0;whiteSpace=wrap;html=1;strokeColor=light-dark(#000000,#000000);" vertex="1" parent="1">
          <mxGeometry x="359" y="200" width="110" height="20" as="geometry" />
        </mxCell>
        <mxCell id="vJJlu5tf9LUZKPHLV9eS-44" value="&lt;font style=&quot;font-size: 48px;&quot;&gt;Fábrica del MateHolder&lt;/font&gt;" style="text;html=1;whiteSpace=wrap;strokeColor=none;fillColor=none;align=center;verticalAlign=middle;rounded=0;" vertex="1" parent="1">
          <mxGeometry x="234" y="40" width="360" height="130" as="geometry" />
        </mxCell>
      </root>
    </mxGraphModel>
  </diagram>
</mxfile>
